<svg xmlns="http://www.w3.org/2000/svg" width="256" height="256" fill="none" viewBox="0 0 256 256"><path d="M128 0C198.692 0 256 57.308 256 128C256 198.692 198.692 256 128 256C57.308 256 0 198.692 0 128C0 57.308 57.308 0 128 0ZM128 32C74.98 32 32 74.98 32 128C32 181.019 74.98 224 128 224C181.019 224 224 181.019 224 128C224 74.98 181.019 32 128 32ZM128 56C167.765 56 200 88.236 200 128C200 167.765 167.765 200 128 200C88.236 200 56 167.765 56 128C56 88.236 88.236 56 128 56ZM128 88C105.909 88 88 105.909 88 128C88 150.091 105.909 168 128 168C150.091 168 168 150.091 168 128C168 105.909 150.091 88 128 88ZM128 112C136.837 112 144 119.163 144 128C144 136.837 136.837 144 128 144C119.163 144 112 136.837 112 128C112 119.163 119.163 112 128 112Z" fill="rgb(84, 84, 84)"/></svg>
